<?xml version="1.0" encoding="UTF-8" ?>
<!DOCTYPE svg PUBLIC "-//W3C//DTD SVG 1.1//EN" "http://www.w3.org/Graphics/SVG/1.1/DTD/svg11.dtd">
<svg width="125pt" height="187pt" viewBox="0 0 125 187" version="1.1" xmlns="http://www.w3.org/2000/svg">
<g id="#ffffffff">
<path fill="#ffffff" opacity="1.00" d=" M 41.67 3.96 C 58.94 -2.19 78.95 -0.21 94.57 9.43 C 115.51 21.88 128.32 47.73 123.46 71.89 C 119.53 88.90 111.74 104.67 103.93 120.17 C 92.85 141.55 80.43 162.21 67.43 182.47 C 66.17 184.38 64.67 186.93 61.97 186.52 C 59.38 186.46 58.30 183.84 56.98 182.05 C 42.09 158.80 27.90 135.05 15.76 110.22 C 8.91 95.71 2.13 80.79 0.00 64.73 L 0.00 60.72 C 0.58 52.21 2.33 43.71 6.09 36.01 C 13.10 21.20 26.17 9.32 41.67 3.96 M 54.05 2.04 C 37.68 4.28 22.39 13.48 12.80 26.95 C 4.59 38.23 0.29 52.44 1.39 66.39 C 2.65 76.52 6.40 86.11 10.26 95.48 C 21.99 122.60 37.06 148.12 52.64 173.17 C 55.24 176.94 57.29 181.12 60.26 184.63 C 62.14 186.74 64.98 184.83 65.91 182.79 C 82.46 157.01 98.20 130.63 111.16 102.85 C 116.41 90.99 121.74 78.86 123.35 65.88 C 124.76 45.47 114.62 24.91 98.02 13.07 C 85.49 3.96 69.40 -0.13 54.05 2.04 Z" />
<path fill="#ffffff" opacity="1.00" d=" M 58.70 44.71 C 59.50 42.87 60.54 40.45 62.81 40.19 C 65.15 39.87 68.45 39.87 69.55 42.44 C 71.32 46.19 72.56 50.17 74.14 54.00 C 76.04 53.99 77.94 53.99 79.84 54.00 C 78.36 55.01 76.63 55.51 74.97 56.10 C 76.08 58.98 77.19 61.87 78.30 64.75 C 75.64 64.75 72.98 64.75 70.31 64.76 C 69.73 63.10 69.15 61.45 68.57 59.79 C 65.96 59.76 63.36 59.75 60.75 59.74 C 60.13 61.41 59.51 63.08 58.90 64.76 C 56.25 64.75 53.60 64.75 50.94 64.75 C 53.54 58.07 56.12 51.39 58.70 44.71 M 64.58 47.75 C 64.13 49.16 63.68 50.57 63.23 51.98 C 61.02 52.61 58.81 53.21 56.60 53.84 C 59.97 54.01 63.35 54.02 66.73 54.01 C 66.02 51.92 65.30 49.83 64.58 47.75 Z" />
<path fill="#ffffff" opacity="1.00" d=" M 80.24 40.50 C 82.75 40.50 85.25 40.50 87.75 40.50 C 87.79 46.45 87.64 52.40 87.87 58.35 C 92.24 58.58 96.61 58.50 100.99 58.48 C 100.99 60.57 101.00 62.66 101.00 64.76 C 94.33 64.47 87.57 65.42 80.98 64.09 C 79.27 56.35 80.65 48.35 80.24 40.50 Z" />
<path fill="#ffffff" opacity="1.00" d=" M 24.75 40.50 C 27.25 40.50 29.75 40.50 32.25 40.50 C 32.25 48.58 32.26 56.67 32.24 64.75 C 29.76 64.75 27.27 64.76 24.78 64.78 C 24.71 56.69 24.76 48.59 24.75 40.50 Z" />
<path fill="#ffffff" opacity="1.00" d=" M 33.19 40.56 C 41.01 40.40 48.83 40.59 56.66 40.44 C 56.72 42.46 56.75 44.48 56.78 46.50 C 54.10 46.50 51.43 46.50 48.76 46.50 C 48.75 52.59 48.76 58.67 48.75 64.75 C 46.25 64.75 43.75 64.75 41.25 64.75 C 41.25 58.67 41.25 52.59 41.24 46.50 C 38.58 46.50 35.92 46.50 33.27 46.50 C 33.25 44.52 33.23 42.54 33.19 40.56 Z" />
<path fill="#ffffff" opacity="1.00" d=" M 23.89 71.96 C 24.93 68.58 28.66 67.26 31.89 67.27 C 37.46 67.17 43.02 67.30 48.58 67.24 C 48.79 68.82 49.03 70.40 49.30 71.98 C 48.49 72.81 47.48 73.79 46.15 73.29 C 41.74 73.55 37.14 72.57 32.86 73.79 C 29.45 76.13 29.87 81.92 32.20 84.92 C 35.05 85.98 38.15 85.45 41.08 85.17 C 41.16 83.78 41.23 82.39 41.30 81.00 C 43.78 81.00 46.27 81.00 48.75 81.01 C 48.71 83.85 48.96 86.73 48.56 89.55 C 47.92 91.34 45.72 91.58 44.10 91.73 C 39.69 91.78 35.28 91.85 30.88 91.66 C 27.73 91.57 24.41 89.74 23.63 86.50 C 22.49 81.77 22.33 76.61 23.89 71.96 Z" />
<path fill="#ffffff" opacity="1.00" d=" M 61.23 67.35 C 63.71 67.16 66.70 66.37 68.80 68.16 C 71.21 72.13 72.29 76.75 74.17 80.98 C 76.40 80.99 78.64 81.02 80.88 81.13 C 78.90 81.76 76.91 82.34 74.92 82.92 C 76.06 85.86 77.19 88.80 78.30 91.75 C 75.64 91.75 72.99 91.75 70.34 91.75 C 69.74 90.07 69.12 88.40 68.48 86.73 C 65.90 86.75 63.33 86.75 60.75 86.75 C 60.12 88.41 59.50 90.08 58.91 91.76 C 56.24 91.75 53.57 91.75 50.90 91.73 C 54.51 83.68 56.51 74.84 61.23 67.35 M 64.63 74.63 C 64.17 76.06 63.71 77.49 63.25 78.93 C 61.01 79.54 58.76 80.12 56.52 80.71 C 59.92 81.02 63.35 81.05 66.76 80.98 C 66.07 78.85 65.36 76.74 64.63 74.63 Z" />
<path fill="#ffffff" opacity="1.00" d=" M 79.94 77.88 C 79.03 74.40 78.70 68.79 83.01 67.52 C 88.56 66.89 94.18 67.41 99.75 67.25 C 99.75 69.33 99.75 71.42 99.76 73.50 C 95.41 73.54 91.05 73.33 86.72 73.75 C 90.29 77.36 96.57 76.11 99.91 80.05 C 101.56 83.59 101.86 89.69 97.57 91.42 C 91.59 92.17 85.51 91.57 79.49 91.73 C 79.49 89.65 79.50 87.58 79.51 85.50 C 84.07 85.47 88.64 85.59 93.20 85.40 C 90.19 80.89 82.06 83.47 79.94 77.88 Z" />
</g>
<g id="#0d2f8eff">
<path fill="#0d2f8e" opacity="1.00" d=" M 54.05 2.04 C 69.40 -0.13 85.49 3.96 98.02 13.07 C 114.62 24.91 124.76 45.47 123.35 65.88 C 121.74 78.86 116.41 90.99 111.16 102.85 C 98.20 130.63 82.46 157.01 65.91 182.79 C 64.98 184.83 62.14 186.74 60.26 184.63 C 57.29 181.12 55.24 176.94 52.64 173.17 C 37.06 148.12 21.99 122.60 10.26 95.48 C 6.40 86.11 2.65 76.52 1.39 66.39 C 0.29 52.44 4.59 38.23 12.80 26.95 C 22.39 13.48 37.68 4.28 54.05 2.04 M 17.31 39.17 C 22.29 39.31 27.27 39.24 32.25 39.25 C 32.25 37.02 32.25 34.79 32.24 32.56 C 27.25 34.74 22.21 36.80 17.31 39.17 M 58.70 44.71 C 56.12 51.39 53.54 58.07 50.94 64.75 C 53.60 64.75 56.25 64.75 58.90 64.76 C 59.51 63.08 60.13 61.41 60.75 59.74 C 63.36 59.75 65.96 59.76 68.57 59.79 C 69.15 61.45 69.73 63.10 70.31 64.76 C 72.98 64.75 75.64 64.75 78.30 64.75 C 77.19 61.87 76.08 58.98 74.97 56.10 C 76.63 55.51 78.36 55.01 79.84 54.00 C 77.94 53.99 76.04 53.99 74.14 54.00 C 72.56 50.17 71.32 46.19 69.55 42.44 C 68.45 39.87 65.15 39.87 62.81 40.19 C 60.54 40.45 59.50 42.87 58.70 44.71 M 80.24 40.50 C 80.65 48.35 79.27 56.35 80.98 64.09 C 87.57 65.42 94.33 64.47 101.00 64.76 C 101.00 62.66 100.99 60.57 100.99 58.48 C 96.61 58.50 92.24 58.58 87.87 58.35 C 87.64 52.40 87.79 46.45 87.75 40.50 C 85.25 40.50 82.75 40.50 80.24 40.50 M 24.75 40.50 C 24.76 48.59 24.71 56.69 24.78 64.78 C 27.27 64.76 29.76 64.75 32.24 64.75 C 32.26 56.67 32.25 48.58 32.25 40.50 C 29.75 40.50 27.25 40.50 24.75 40.50 M 33.19 40.56 C 33.23 42.54 33.25 44.52 33.27 46.50 C 35.92 46.50 38.58 46.50 41.24 46.50 C 41.25 52.59 41.25 58.67 41.25 64.75 C 43.75 64.75 46.25 64.75 48.75 64.75 C 48.76 58.67 48.75 52.59 48.76 46.50 C 51.43 46.50 54.10 46.50 56.78 46.50 C 56.75 44.48 56.72 42.46 56.66 40.44 C 48.83 40.59 41.01 40.40 33.19 40.56 M 23.89 71.96 C 22.33 76.61 22.49 81.77 23.63 86.50 C 24.41 89.74 27.73 91.57 30.88 91.66 C 35.28 91.85 39.69 91.78 44.10 91.73 C 45.72 91.58 47.92 91.34 48.56 89.55 C 48.96 86.73 48.71 83.85 48.75 81.01 C 46.27 81.00 43.78 81.00 41.30 81.00 C 41.23 82.39 41.16 83.78 41.08 85.17 C 38.15 85.45 35.05 85.98 32.20 84.92 C 29.87 81.92 29.45 76.13 32.86 73.79 C 37.14 72.57 41.74 73.55 46.15 73.29 C 47.48 73.79 48.49 72.81 49.30 71.98 C 49.03 70.40 48.79 68.82 48.58 67.24 C 43.02 67.30 37.46 67.17 31.89 67.27 C 28.66 67.26 24.93 68.58 23.89 71.96 M 61.23 67.35 C 56.51 74.84 54.51 83.68 50.90 91.73 C 53.57 91.75 56.24 91.75 58.91 91.76 C 59.50 90.08 60.12 88.41 60.75 86.75 C 63.33 86.75 65.90 86.75 68.48 86.73 C 69.12 88.40 69.74 90.07 70.34 91.75 C 72.99 91.75 75.64 91.75 78.30 91.75 C 77.19 88.80 76.06 85.86 74.92 82.92 C 76.91 82.34 78.90 81.76 80.88 81.13 C 78.64 81.02 76.40 80.99 74.17 80.98 C 72.29 76.75 71.21 72.13 68.80 68.16 C 66.70 66.37 63.71 67.16 61.23 67.35 M 79.94 77.88 C 82.06 83.47 90.19 80.89 93.20 85.40 C 88.64 85.59 84.07 85.47 79.51 85.50 C 79.50 87.58 79.49 89.65 79.49 91.73 C 85.51 91.57 91.59 92.17 97.57 91.42 C 101.86 89.69 101.56 83.59 99.91 80.05 C 96.57 76.11 90.29 77.36 86.72 73.75 C 91.05 73.33 95.41 73.54 99.76 73.50 C 99.75 71.42 99.75 69.33 99.75 67.25 C 94.18 67.41 88.56 66.89 83.01 67.52 C 78.70 68.79 79.03 74.40 79.94 77.88 M 34.22 79.78 C 39.06 79.75 43.90 79.74 48.74 79.75 C 48.75 77.68 48.76 75.61 48.79 73.54 C 43.81 75.31 39.05 77.63 34.22 79.78 Z" />
<path fill="#0d2f8e" opacity="1.00" d=" M 64.58 47.75 C 65.30 49.83 66.02 51.92 66.73 54.01 C 63.35 54.02 59.97 54.01 56.60 53.84 C 58.81 53.21 61.02 52.61 63.23 51.98 C 63.68 50.57 64.13 49.16 64.58 47.75 Z" />
<path fill="#0d2f8e" opacity="1.00" d=" M 64.63 74.63 C 65.36 76.74 66.07 78.85 66.76 80.98 C 63.35 81.05 59.92 81.02 56.52 80.71 C 58.76 80.12 61.01 79.54 63.25 78.93 C 63.71 77.49 64.17 76.06 64.63 74.63 Z" />
</g>
<g id="#ff0001ff">
<path fill="#ff0001" opacity="1.00" d=" M 17.31 39.17 C 22.21 36.80 27.25 34.74 32.24 32.56 C 32.25 34.79 32.25 37.02 32.25 39.25 C 27.27 39.24 22.29 39.31 17.31 39.17 Z" />
<path fill="#ff0001" opacity="1.00" d=" M 34.22 79.78 C 39.05 77.63 43.81 75.31 48.79 73.54 C 48.76 75.61 48.75 77.68 48.74 79.75 C 43.90 79.74 39.06 79.75 34.22 79.78 Z" />
</g>
</svg>
