<svg xmlns="http://www.w3.org/2000/svg" width="37" height="22" viewBox="0 0 37 22" fill="none">
    <path fill-rule="evenodd" clip-rule="evenodd" d="M36.75 20.1562C36.75 19.7501 36.5887 19.3607 36.3015 19.0735C36.0143 18.7863 35.6249 18.625 35.2188 18.625H26.0312C25.6251 18.625 25.2357 18.7863 24.9485 19.0735C24.6613 19.3607 24.5 19.7501 24.5 20.1562C24.5 20.5624 24.6613 20.9518 24.9485 21.239C25.2357 21.5262 25.6251 21.6875 26.0312 21.6875H35.2188C35.6249 21.6875 36.0143 21.5262 36.3015 21.239C36.5887 20.9518 36.75 20.5624 36.75 20.1562ZM36.75 10.9688C36.75 10.5626 36.5887 10.1732 36.3015 9.88599C36.0143 9.59883 35.6249 9.4375 35.2188 9.4375H13.7812C13.3751 9.4375 12.9857 9.59883 12.6985 9.88599C12.4113 10.1732 12.25 10.5626 12.25 10.9688C12.25 11.3749 12.4113 11.7643 12.6985 12.0515C12.9857 12.3387 13.3751 12.5 13.7812 12.5H35.2188C35.6249 12.5 36.0143 12.3387 36.3015 12.0515C36.5887 11.7643 36.75 11.3749 36.75 10.9688ZM36.75 1.78125C36.75 1.37514 36.5887 0.985658 36.3015 0.698493C36.0143 0.411328 35.6249 0.25 35.2188 0.25H1.53125C1.12514 0.25 0.735658 0.411328 0.448493 0.698493C0.161328 0.985658 0 1.37514 0 1.78125C0 2.18736 0.161328 2.57684 0.448493 2.86401C0.735658 3.15117 1.12514 3.3125 1.53125 3.3125H35.2188C35.6249 3.3125 36.0143 3.15117 36.3015 2.86401C36.5887 2.57684 36.75 2.18736 36.75 1.78125Z" fill="#004E9C"/>
</svg>