<svg width="25" height="19" viewBox="0 0 25 19" fill="none" xmlns="http://www.w3.org/2000/svg">
<path d="M0 17.0218C0 17.7417 0.557501 18.3241 1.24375 18.3241H11.2563C11.5861 18.3241 11.9025 18.1869 12.1357 17.9427C12.369 17.6984 12.5 17.3672 12.5 17.0218C12.5 16.6764 12.369 16.3451 12.1357 16.1009C11.9025 15.8567 11.5861 15.7195 11.2563 15.7195H1.24375C0.556252 15.7195 0 16.3019 0 17.0218ZM0 9.16205C0 9.88193 0.557501 10.4644 1.24375 10.4644H23.7563C24.0861 10.4644 24.4025 10.3272 24.6357 10.0829C24.869 9.8387 25 9.50745 25 9.16205C25 8.81665 24.869 8.4854 24.6357 8.24117C24.4025 7.99694 24.0861 7.85973 23.7563 7.85973H1.24375C0.556252 7.85973 0 8.44348 0 9.16205ZM1.24375 2.60464C0.913889 2.60464 0.597536 2.46743 0.364286 2.2232C0.131039 1.97897 0 1.64772 0 1.30232C0 0.956923 0.131039 0.625673 0.364286 0.38144C0.597536 0.137208 0.913889 1.02936e-08 1.24375 0H16.2563C16.4196 -5.09689e-09 16.5813 0.0336855 16.7322 0.0991332C16.8831 0.164581 17.0202 0.260509 17.1357 0.38144C17.2512 0.502372 17.3428 0.645939 17.4053 0.803944C17.4678 0.961949 17.5 1.1313 17.5 1.30232C17.5 1.47334 17.4678 1.64269 17.4053 1.8007C17.3428 1.9587 17.2512 2.10227 17.1357 2.2232C17.0202 2.34413 16.8831 2.44006 16.7322 2.50551C16.5813 2.57095 16.4196 2.60464 16.2563 2.60464H1.24375Z" fill="#FFF4F5"/>
</svg>
