<svg width="19" height="18" viewBox="0 0 19 18" fill="none" xmlns="http://www.w3.org/2000/svg">
<path d="M17.0203 4.86584H12.3784" stroke="white" stroke-width="1.5" stroke-miterlimit="10" stroke-linecap="round" stroke-linejoin="round"/>
<path d="M5.72836 4.86621H2.63379" stroke="white" stroke-width="1.5" stroke-miterlimit="10" stroke-linecap="round" stroke-linejoin="round"/>
<path d="M9.23663 7.52832C10.737 7.52832 11.9532 6.40903 11.9532 5.02832C11.9532 3.64761 10.737 2.52832 9.23663 2.52832C7.73629 2.52832 6.52002 3.64761 6.52002 5.02832C6.52002 6.40903 7.73629 7.52832 9.23663 7.52832Z" stroke="white" stroke-width="1.5" stroke-miterlimit="10" stroke-linecap="round" stroke-linejoin="round"/>
<path d="M17.0189 13.1006H13.9243" stroke="white" stroke-width="1.5" stroke-miterlimit="10" stroke-linecap="round" stroke-linejoin="round"/>
<path d="M7.27564 13.1006H2.63379" stroke="white" stroke-width="1.5" stroke-miterlimit="10" stroke-linecap="round" stroke-linejoin="round"/>
<path d="M10.3231 15.5283C11.8234 15.5283 13.0397 14.409 13.0397 13.0283C13.0397 11.6476 11.8234 10.5283 10.3231 10.5283C8.82271 10.5283 7.60645 11.6476 7.60645 13.0283C7.60645 14.409 8.82271 15.5283 10.3231 15.5283Z" stroke="white" stroke-width="1.5" stroke-miterlimit="10" stroke-linecap="round" stroke-linejoin="round"/>
</svg>
