<svg width="22" height="19" viewBox="0 0 22 19" fill="none" xmlns="http://www.w3.org/2000/svg">
<path d="M14 0.00370011C14.7021 0.00371795 15.3919 0.188556 16 0.539636C16.608 0.890717 17.113 1.39567 17.464 2.00374C17.8151 2.61182 17.9999 3.30159 17.9999 4.00373C17.9999 4.70586 17.8151 5.39563 17.464 6.0037H22V8.0037H20V18.0037C20 18.2689 19.8946 18.5233 19.7071 18.7108C19.5196 18.8983 19.2652 19.0037 19 19.0037H3C2.73478 19.0037 2.48043 18.8983 2.29289 18.7108C2.10536 18.5233 2 18.2689 2 18.0037V8.0037H0V6.0037H4.535C4.03769 5.14445 3.87769 4.13096 4.0861 3.16029C4.29452 2.18962 4.85646 1.33115 5.66266 0.751778C6.46887 0.172408 7.46172 -0.086448 8.44817 0.0255395C9.43463 0.137527 10.3442 0.612355 11 1.3577C11.3744 0.931239 11.8358 0.58979 12.353 0.356261C12.8703 0.122732 13.4315 0.00252332 13.999 0.00370011M11.999 8.0037H9.999V18.0037H11.999V8.0037ZM7.999 2.0037C7.48238 2.00492 6.98628 2.20601 6.61461 2.56483C6.24293 2.92365 6.02453 3.41238 6.00514 3.92863C5.98575 4.44489 6.16688 4.94862 6.51059 5.33431C6.85431 5.72 7.33393 5.95773 7.849 5.9977L7.999 6.0037H9.999V4.0037C9.99902 3.52576 9.82789 3.06362 9.51659 2.70096C9.2053 2.3383 8.77442 2.09911 8.302 2.0267L8.148 2.0087L7.999 2.0037ZM13.999 2.0037C13.4944 2.00354 13.0084 2.19411 12.6385 2.5372C12.2685 2.88029 12.0418 3.35054 12.004 3.8537L11.999 4.0037V6.0037H13.999C14.5034 6.00361 14.9891 5.81293 15.3589 5.46986C15.7287 5.1268 15.9552 4.65668 15.993 4.1537L15.999 4.0037C15.999 3.47327 15.7883 2.96456 15.4132 2.58949C15.0381 2.21441 14.5294 2.0037 13.999 2.0037Z" fill="#FFF6F6"/>
</svg>
