<svg width="24" height="24" viewBox="0 0 24 24" fill="none" xmlns="http://www.w3.org/2000/svg">
<g clip-path="url(#clip0_248_1421)">
<path d="M22.975 8.69514L15.889 1.60916C13.7396 -0.534759 10.2605 -0.534759 8.11101 1.60916L1.02503 8.69514C0.366528 9.35013 -0.0025647 10.2413 1.34159e-05 11.1701V21.5481C0.00221654 22.9027 1.1004 24 2.45504 24.0011H21.545C22.8996 24 23.9978 22.9027 24 21.5481V11.1701C24.0026 10.2413 23.6335 9.35013 22.975 8.69514ZM21 21.0011H16V17.8191C16 15.7105 14.2906 14.0011 12.182 14.0011H11.818C9.7094 14.0011 8.00001 15.7105 8.00001 17.8191V21.0011H3.00001V11.1701C3.00034 11.0375 3.05274 10.9104 3.14602 10.8161L10.232 3.73015C11.2082 2.7537 12.7911 2.75352 13.7675 3.72969C13.7677 3.72983 13.7679 3.73001 13.768 3.73015L20.854 10.8161C20.9472 10.9104 20.9997 11.0375 21 11.1701V21.0011H21Z" fill="#FFFDFD"/>
</g>
<defs>
<clipPath id="clip0_248_1421">
<rect width="24" height="24" fill="white"/>
</clipPath>
</defs>
</svg>
