<svg width="30" height="30" viewBox="0 0 30 30" fill="none" xmlns="http://www.w3.org/2000/svg">
<rect width="30" height="30" rx="6" fill="#F44336"/>
<mask id="mask0_88_63" style="mask-type:luminance" maskUnits="userSpaceOnUse" x="7" y="7" width="17" height="17">
<path d="M23.8 7H7V23.8H23.8V7Z" fill="white"/>
</mask>
<g mask="url(#mask0_88_63)">
<path d="M9.96588 8.42404C9.72963 8.52576 9.7001 8.7292 9.8576 9.12295C10.5565 10.8587 10.1004 12.6405 8.51556 14.3663C8.24979 14.6552 8.16776 14.7863 8.09556 15.026C7.95119 15.5279 8.20713 16.2203 8.72556 16.7158C8.89948 16.8831 9.24729 17.1391 9.29979 17.1391C9.30963 17.1391 9.32932 16.9618 9.34245 16.7453C9.40479 15.6297 9.89369 14.7568 10.8485 14.0579C11.0126 13.9365 11.7476 13.5297 11.7968 13.5297C11.8067 13.5297 11.7739 13.661 11.7246 13.8184C11.472 14.5994 11.4424 15.4263 11.6426 15.9808C11.7345 16.2334 11.9018 16.5157 12.0396 16.6502L12.1414 16.7486L12.417 16.4894C13.0568 15.8823 13.5162 15.0128 13.6474 14.1465C13.7361 13.5723 13.6737 12.7323 13.4932 12.0695C13.1126 10.6651 12.056 9.40842 10.5598 8.57826C10.1792 8.36826 10.1299 8.35513 9.96588 8.42404Z" fill="white"/>
<path d="M21.847 9.09332C21.6731 9.17535 21.4499 9.42143 21.4073 9.57893C21.322 9.88409 21.3744 10.1269 21.5812 10.3993C21.7748 10.6486 21.8404 10.8718 21.8438 11.2491C21.8438 11.6002 21.7944 11.8463 21.6468 12.1973C21.6009 12.3057 21.5549 12.4205 21.5451 12.4533C21.5352 12.4927 21.5976 12.5517 21.788 12.6797C22.0767 12.8733 22.4376 13.2277 22.6115 13.4902C22.7526 13.7002 22.7362 13.7133 23.002 13.1883C23.4286 12.3385 23.5893 11.4689 23.4581 10.7241C23.3301 10.0153 22.9922 9.38862 22.6017 9.13925C22.4212 9.02441 22.0406 9.00143 21.847 9.09332Z" fill="white"/>
<path d="M19.124 13.1818C18.7237 13.2474 18.4678 13.3261 18.1002 13.5001C17.4505 13.8019 17.0962 14.1104 16.5187 14.875C14.7599 17.2013 12.8305 18.5959 10.6649 19.1077C10.0152 19.2619 9.55584 19.3079 8.54194 19.3276C8.01037 19.3342 7.51819 19.3571 7.45257 19.3735C7.19991 19.4392 7.17366 19.5508 7.33773 19.8658C7.68553 20.5482 8.96523 21.3521 10.3532 21.7656C10.8716 21.9198 11.3048 22.015 12.0365 22.1264C12.1644 22.1462 12.637 22.1724 13.0865 22.1822C13.9691 22.2019 14.5597 22.1593 15.2686 22.0248C16.9387 21.7064 18.5104 20.9748 19.9115 19.8658C20.2691 19.5835 20.9681 18.9306 21.1912 18.6713C21.5816 18.2218 21.8934 17.6082 22.0607 16.9553C22.5365 15.1211 21.8639 13.615 20.3971 13.2311C20.069 13.1458 19.4784 13.1227 19.124 13.1818Z" fill="white"/>
</g>
</svg>
