<svg width="14" height="18" viewBox="0 0 14 18" fill="none" xmlns="http://www.w3.org/2000/svg">
<path fill-rule="evenodd" clip-rule="evenodd" d="M10.1607 12.5143C11.2109 13.1597 12.2962 13.7503 13.412 14.2835C13.5322 14.3297 13.6411 14.3995 13.7319 14.4885C13.8227 14.5775 13.8932 14.6837 13.9392 14.8004C13.9851 14.9171 14.0054 15.0418 13.9988 15.1664C13.9921 15.2911 13.9586 15.4131 13.9004 15.5246L13.7153 16.1504C13.6687 16.3824 13.5633 16.5997 13.4086 16.7829C13.2539 16.9662 13.0547 17.1097 12.8286 17.2008C12.1027 17.603 11.3065 17.8736 10.4796 17.9992C8.22699 18.0442 6.23578 16.2299 4.84192 14.7127C3.95229 13.7496 3.16192 12.7052 2.482 11.5943C1.81025 10.4837 1.25325 9.31204 0.819018 8.0963C0.131423 6.19046 -0.528167 3.64533 0.638568 1.81452C1.16996 1.19595 1.81489 0.677074 2.54111 0.28385C2.7401 0.143375 2.97144 0.0515569 3.2153 0.0162717C3.45915 -0.0190135 3.70827 0.00328374 3.94123 0.0812571L4.60549 0.241826C4.73398 0.254986 4.8584 0.292802 4.97152 0.353043C5.08464 0.413284 5.18415 0.494737 5.26416 0.592611C5.34416 0.690485 5.40309 0.802806 5.43744 0.922965C5.47179 1.04312 5.48086 1.16869 5.46417 1.29229C5.45328 2.68341 5.43152 3.68135 5.4813 4.82485C5.49997 5.29906 5.30708 5.36659 4.85906 5.53317L4.13255 5.80329C4.01454 5.82045 3.90154 5.86112 3.8007 5.9227C3.69987 5.98427 3.61338 6.06542 3.54681 6.16097C3.48024 6.25652 3.43504 6.36439 3.41402 6.47772C3.39301 6.59104 3.39666 6.70735 3.42475 6.81924C3.96557 9.30161 5.331 11.5461 7.31387 13.2121C7.40149 13.2916 7.50502 13.3529 7.61813 13.3924C7.73124 13.4319 7.85152 13.4486 7.97158 13.4416C8.09164 13.4345 8.20891 13.4039 8.31625 13.3515C8.42358 13.2992 8.51867 13.2262 8.59568 13.137L9.20397 12.6763C9.25555 12.6044 9.32145 12.5431 9.39786 12.4959C9.47427 12.4488 9.55965 12.4169 9.649 12.4019C9.73835 12.387 9.82989 12.3893 9.91828 12.4089C10.0067 12.4284 10.0901 12.4648 10.1638 12.5158L10.1607 12.5143Z" fill="white"/>
</svg>
