<svg width="31" height="31" viewBox="0 0 31 31" fill="none" xmlns="http://www.w3.org/2000/svg">
<path d="M9.54834 9.76435V8.52939C9.54834 5.66481 11.8527 2.85115 14.7173 2.58379C18.1294 2.25277 21.0067 4.93911 21.0067 8.28749V10.0444" fill="#2B2D2F"/>
<path d="M9.54834 9.76435V8.52939C9.54834 5.66481 11.8527 2.85115 14.7173 2.58379C18.1294 2.25277 21.0067 4.93911 21.0067 8.28749V10.0444" stroke="#FD1313" stroke-width="1.5" stroke-miterlimit="10" stroke-linecap="round" stroke-linejoin="round"/>
<path d="M11.4583 28.0094H19.0972C24.2153 28.0094 25.132 25.9596 25.3993 23.4642L26.3542 15.8253C26.6979 12.7189 25.8067 10.1853 20.3704 10.1853H10.1852C4.74885 10.1853 3.85765 12.7189 4.2014 15.8253L5.15626 23.4642C5.42362 25.9596 6.34029 28.0094 11.4583 28.0094Z" fill="#2B2D2F" stroke="#FD1313" stroke-width="1.5" stroke-miterlimit="10" stroke-linecap="round" stroke-linejoin="round"/>
<path fill-rule="evenodd" clip-rule="evenodd" d="M19.7277 15.2777H19.7392Z" fill="#2B2D2F"/>
<path d="M19.7277 15.2777H19.7392" stroke="#FD1313" stroke-width="2" stroke-linecap="round" stroke-linejoin="round"/>
<path fill-rule="evenodd" clip-rule="evenodd" d="M10.8146 15.2777H10.8261Z" fill="#2B2D2F"/>
<path d="M10.8146 15.2777H10.8261" stroke="#FD1313" stroke-width="2" stroke-linecap="round" stroke-linejoin="round"/>
</svg>
