<svg width="16" height="18" viewBox="0 0 16 18" fill="none" xmlns="http://www.w3.org/2000/svg">
<path d="M0.78418 3.92087H2.35251H14.8991" stroke="#F44336" stroke-width="1.56833" stroke-linecap="round" stroke-linejoin="round"/>
<path d="M4.70503 3.9208V2.35248C4.70503 1.93653 4.87026 1.53762 5.16438 1.2435C5.4585 0.949383 5.85741 0.784149 6.27336 0.784149H9.41001C9.82596 0.784149 10.2249 0.949383 10.519 1.2435C10.8131 1.53762 10.9783 1.93653 10.9783 2.35248V3.9208M13.3308 3.9208V14.8991C13.3308 15.315 13.1656 15.7139 12.8715 16.0081C12.5774 16.3022 12.1784 16.4674 11.7625 16.4674H3.92087C3.50492 16.4674 3.10601 16.3022 2.81189 16.0081C2.51777 15.7139 2.35254 15.315 2.35254 14.8991V3.9208H13.3308Z" stroke="#F44336" stroke-width="1.56833" stroke-linecap="round" stroke-linejoin="round"/>
<path d="M6.27344 7.84177V12.5467" stroke="#F44336" stroke-width="1.56833" stroke-linecap="round" stroke-linejoin="round"/>
<path d="M9.41016 7.84177V12.5467" stroke="#F44336" stroke-width="1.56833" stroke-linecap="round" stroke-linejoin="round"/>
</svg>
