<svg width="19" height="18" viewBox="0 0 19 18" fill="none" xmlns="http://www.w3.org/2000/svg">
<path d="M17.0203 4.86584H12.3784" stroke="white" stroke-width="1.5" stroke-miterlimit="10" stroke-linecap="round" stroke-linejoin="round"/>
<path d="M5.72836 4.86621H2.63379" stroke="white" stroke-width="1.5" stroke-miterlimit="10" stroke-linecap="round" stroke-linejoin="round"/>
<path d="M9.23638 7.52832C10.7367 7.52832 11.953 6.40903 11.953 5.02832C11.953 3.64761 10.7367 2.52832 9.23638 2.52832C7.73604 2.52832 6.51978 3.64761 6.51978 5.02832C6.51978 6.40903 7.73604 7.52832 9.23638 7.52832Z" stroke="white" stroke-width="1.5" stroke-miterlimit="10" stroke-linecap="round" stroke-linejoin="round"/>
<path d="M17.0191 13.1006H13.9246" stroke="white" stroke-width="1.5" stroke-miterlimit="10" stroke-linecap="round" stroke-linejoin="round"/>
<path d="M7.27564 13.1006H2.63379" stroke="white" stroke-width="1.5" stroke-miterlimit="10" stroke-linecap="round" stroke-linejoin="round"/>
<path d="M10.3231 15.5283C11.8234 15.5283 13.0397 14.409 13.0397 13.0283C13.0397 11.6476 11.8234 10.5283 10.3231 10.5283C8.82271 10.5283 7.60645 11.6476 7.60645 13.0283C7.60645 14.409 8.82271 15.5283 10.3231 15.5283Z" stroke="white" stroke-width="1.5" stroke-miterlimit="10" stroke-linecap="round" stroke-linejoin="round"/>
</svg>
