<svg width="25" height="23" viewBox="0 0 25 23" fill="none" xmlns="http://www.w3.org/2000/svg">
<path fill-rule="evenodd" clip-rule="evenodd" d="M5.3125 12.9578C10.3987 12.9578 10.625 14.5834 10.625 17.9642C10.625 19.6581 10.625 20.8632 9.87 21.7455C9.00125 22.7621 7.42 22.9706 5.3125 22.9706C3.205 22.9706 1.62375 22.7621 0.755 21.7455C0 20.8632 0 19.6593 0 17.9936L0.9375 17.9642H0C0 14.5834 0.22625 12.9578 5.3125 12.9578ZM19.0625 12.9578C24.1488 12.9578 24.375 14.5834 24.375 17.9642C24.375 19.6581 24.375 20.8632 23.62 21.7455C22.7512 22.7621 21.17 22.9706 19.0625 22.9706C16.955 22.9706 15.3737 22.7621 14.505 21.7455C13.75 20.8632 13.75 19.6593 13.75 17.9936L14.6875 17.9642H13.75C13.75 14.5834 13.9763 12.9578 19.0625 12.9578ZM5.5702 14.7252L5.3125 14.7247C2.05128 14.7247 1.88404 14.9453 1.87546 17.5248L1.87599 18.5298C1.88191 19.5558 1.92339 20.2969 2.21375 20.6382C2.545 21.0245 3.52875 21.2036 5.3125 21.2036C7.09625 21.2036 8.08 21.0234 8.41125 20.637C8.75 20.24 8.75 19.2976 8.75 17.9924C8.75 15.0472 8.75 14.7391 5.5702 14.7252ZM19.3202 14.7252L19.0625 14.7247C15.8013 14.7247 15.634 14.9453 15.6255 17.5248L15.626 18.5298C15.6319 19.5558 15.6734 20.2969 15.9637 20.6382C16.295 21.0245 17.2787 21.2036 19.0625 21.2036C20.8463 21.2036 21.83 21.0234 22.1613 20.637C22.5 20.24 22.5 19.2976 22.5 17.9924C22.5 15.0472 22.5 14.7391 19.3202 14.7252ZM5.3125 0C10.3987 0 10.625 1.62561 10.625 5.00641C10.625 6.70034 10.625 7.90541 9.87 8.78771C9.00125 9.80431 7.42 10.0128 5.3125 10.0128C3.205 10.0128 1.62375 9.80431 0.755 8.78771C0 7.90541 0 6.70152 0 5.03586L0.9375 5.00641H0C0 1.62561 0.22625 0 5.3125 0ZM19.0625 0C24.1488 0 24.375 1.62561 24.375 5.00641C24.375 6.70034 24.375 7.90541 23.62 8.78771C22.7512 9.80431 21.17 10.0128 19.0625 10.0128C16.955 10.0128 15.3737 9.80431 14.505 8.78771C13.75 7.90541 13.75 6.70152 13.75 5.03586L14.6875 5.00641H13.75C13.75 1.62561 13.9763 0 19.0625 0ZM5.5702 1.76749L5.3125 1.76697C2.05128 1.76697 1.88404 1.9875 1.87546 4.56708L1.87599 5.57205C1.88191 6.59802 1.92339 7.33914 2.21375 7.68042C2.545 8.06679 3.52875 8.24584 5.3125 8.24584C7.09625 8.24584 8.08 8.06561 8.41125 7.67924C8.75 7.28226 8.75 6.33988 8.75 5.03468C8.75 2.08949 8.75 1.78136 5.5702 1.76749ZM19.3202 1.76749L19.0625 1.76697C15.8013 1.76697 15.634 1.9875 15.6255 4.56708L15.626 5.57205C15.6319 6.59802 15.6734 7.33914 15.9637 7.68042C16.295 8.06679 17.2787 8.24584 19.0625 8.24584C20.8463 8.24584 21.83 8.06561 22.1613 7.67924C22.5 7.28226 22.5 6.33988 22.5 5.03468C22.5 2.08949 22.5 1.78136 19.3202 1.76749Z" fill="#FFF4F5"/>
</svg>
