<svg width="26" height="26" viewBox="0 0 26 26" fill="none" xmlns="http://www.w3.org/2000/svg">
<path d="M22.2522 19.277C22.0574 19.7023 22.1043 20.2152 22.4341 20.5471L25.2975 23.4291C25.6858 23.8199 25.6848 24.4513 25.2952 24.841L24.8376 25.2986C24.4493 25.6869 23.8205 25.6894 23.4291 25.3043L20.5142 22.436C20.1847 22.1119 19.6793 22.0641 19.2585 22.2552C18.4963 22.6015 17.6481 22.7953 16.7612 22.7953C13.409 22.7953 10.7272 20.1135 10.7272 16.7612C10.7272 13.409 13.409 10.7272 16.7612 10.7272C20.1135 10.7272 22.7953 13.409 22.7953 16.7612C22.7953 17.6559 22.6026 18.512 22.2522 19.277ZM16.7612 20.1135C17.6503 20.1135 18.5029 19.7603 19.1316 19.1316C19.7603 18.5029 20.1135 17.6503 20.1135 16.7612C20.1135 15.8721 19.7603 15.0195 19.1316 14.3908C18.5029 13.7622 17.6503 13.409 16.7612 13.409C15.8721 13.409 15.0195 13.7622 14.3908 14.3908C13.7622 15.0195 13.409 15.8721 13.409 16.7612C13.409 17.6503 13.7622 18.5029 14.3908 19.1316C15.0195 19.7603 15.8721 20.1135 16.7612 20.1135ZM23.1362 0C23.6884 0 24.1362 0.447715 24.1362 1V1.68179C24.1362 2.23408 23.6884 2.68179 23.1362 2.68179H1C0.447715 2.68179 0 2.23408 0 1.68179V1C0 0.447716 0.447715 0 1 0H23.1362ZM1 16.0908C0.447716 16.0908 0 15.6431 0 15.0908V14.409C0 13.8567 0.447715 13.409 1 13.409H7.04538C7.59767 13.409 8.04538 13.8567 8.04538 14.409V15.0908C8.04538 15.6431 7.59767 16.0908 7.04538 16.0908H1ZM1 9.38628C0.447715 9.38628 0 8.93857 0 8.38628V7.70449C0 7.1522 0.447715 6.70449 1 6.70449H23.1362C23.6884 6.70449 24.1362 7.1522 24.1362 7.70449V8.38628C24.1362 8.93857 23.6884 9.38628 23.1362 9.38628H21.7004C21.5133 9.38628 21.3307 9.33257 21.1688 9.23864C19.8688 8.484 18.3624 8.04538 16.7612 8.04538C15.16 8.04538 13.6537 8.484 12.3536 9.23864C12.1918 9.33257 12.0091 9.38628 11.822 9.38628H1Z" fill="#FFFDFD"/>
</svg>
